<mxfile host="Electron" agent="Mozilla/5.0 (Windows NT 10.0; Win64; x64) AppleWebKit/537.36 (KHTML, like Gecko) draw.io/27.0.9 Chrome/134.0.6998.205 Electron/35.4.0 Safari/537.36" version="27.0.9">
  <diagram name="Страница — 1" id="urcIqvd11l_J_i191-EQ">
    <mxGraphModel dx="2066" dy="1201" grid="1" gridSize="10" guides="1" tooltips="1" connect="1" arrows="1" fold="1" page="1" pageScale="1" pageWidth="827" pageHeight="1169" math="0" shadow="0">
      <root>
        <mxCell id="0" />
        <mxCell id="1" parent="0" />
        <mxCell id="FvcbXMyxFb1oahHT501S-1" value="" style="rounded=0;whiteSpace=wrap;html=1;" vertex="1" parent="1">
          <mxGeometry x="40" y="40" width="360" height="430" as="geometry" />
        </mxCell>
        <mxCell id="FvcbXMyxFb1oahHT501S-2" value="Текст" style="rounded=0;whiteSpace=wrap;html=1;" vertex="1" parent="1">
          <mxGeometry x="80" y="90" width="100" height="40" as="geometry" />
        </mxCell>
        <mxCell id="FvcbXMyxFb1oahHT501S-3" value="Поле для ввода текста" style="rounded=0;whiteSpace=wrap;html=1;" vertex="1" parent="1">
          <mxGeometry x="190" y="90" width="170" height="40" as="geometry" />
        </mxCell>
        <mxCell id="FvcbXMyxFb1oahHT501S-12" value="Кнопка &quot;Добавить&quot;" style="rounded=0;whiteSpace=wrap;html=1;" vertex="1" parent="1">
          <mxGeometry x="80" y="370" width="280" height="40" as="geometry" />
        </mxCell>
        <mxCell id="FvcbXMyxFb1oahHT501S-13" value="Текст" style="rounded=0;whiteSpace=wrap;html=1;" vertex="1" parent="1">
          <mxGeometry x="80" y="150" width="100" height="40" as="geometry" />
        </mxCell>
        <mxCell id="FvcbXMyxFb1oahHT501S-14" value="Текст" style="rounded=0;whiteSpace=wrap;html=1;" vertex="1" parent="1">
          <mxGeometry x="80" y="270" width="100" height="40" as="geometry" />
        </mxCell>
        <mxCell id="FvcbXMyxFb1oahHT501S-15" value="Текст" style="rounded=0;whiteSpace=wrap;html=1;" vertex="1" parent="1">
          <mxGeometry x="80" y="210" width="100" height="40" as="geometry" />
        </mxCell>
        <mxCell id="FvcbXMyxFb1oahHT501S-16" value="Поле для ввода текста" style="rounded=0;whiteSpace=wrap;html=1;" vertex="1" parent="1">
          <mxGeometry x="190" y="150" width="170" height="40" as="geometry" />
        </mxCell>
        <mxCell id="FvcbXMyxFb1oahHT501S-17" value="Поле для ввода текста" style="rounded=0;whiteSpace=wrap;html=1;" vertex="1" parent="1">
          <mxGeometry x="190" y="210" width="170" height="40" as="geometry" />
        </mxCell>
        <mxCell id="FvcbXMyxFb1oahHT501S-18" value="Поле для ввода текста" style="rounded=0;whiteSpace=wrap;html=1;" vertex="1" parent="1">
          <mxGeometry x="190" y="270" width="170" height="40" as="geometry" />
        </mxCell>
      </root>
    </mxGraphModel>
  </diagram>
</mxfile>
